<?xml version="1.0" encoding="utf-8"?>
<!-- Generator: Adobe Illustrator 25.1.0, SVG Export Plug-In . SVG Version: 6.00 Build 0)  -->
<svg version="1.1" id="logo_x5F_news_x5F_192px" xmlns="http://www.w3.org/2000/svg" xmlns:xlink="http://www.w3.org/1999/xlink"
	 x="0px" y="0px" viewBox="0 0 24 24" style="enable-background:new 0 0 24 24;" xml:space="preserve">
<style type="text/css">
	.st0{fill:#0C9D58;}
	.st1{opacity:0.2;fill:#004D40;enable-background:new    ;}
	.st2{opacity:0.2;fill:#FFFFFF;enable-background:new    ;}
	.st3{fill:#EA4335;}
	.st4{opacity:0.2;fill:#3E2723;enable-background:new    ;}
	.st5{fill:#FFC107;}
	.st6{fill:#4285F4;}
	.st7{fill:#FFFFFF;}
	.st8{opacity:0.2;fill:#1A237E;enable-background:new    ;}
	.st9{opacity:0.2;}
	.st10{fill:#1A237E;}
	.st11{fill:url(#SVGID_1_);}
</style>
<g>
	<path class="st0" d="M19.1,15.5c0,0.3-0.3,0.6-0.6,0.6h-13c-0.3,0-0.6-0.3-0.6-0.6V2.8c0-0.3,0.3-0.6,0.6-0.6h13
		c0.3,0,0.6,0.3,0.6,0.6L19.1,15.5L19.1,15.5z"/>
	<polygon class="st1" points="19.1,5.5 14.2,4.8 19.1,6.1 	"/>
	<path class="st1" d="M12.2,2.8L4.9,6.1l8.1-3v0C12.9,2.9,12.5,2.7,12.2,2.8z"/>
	<path class="st2" d="M18.5,2.2h-13c-0.3,0-0.6,0.3-0.6,0.6v0.1c0-0.3,0.3-0.6,0.6-0.6h13c0.3,0,0.6,0.3,0.6,0.6V2.8
		C19.1,2.5,18.8,2.2,18.5,2.2z"/>
	<path class="st3" d="M8.1,15.1c-0.1,0.3,0.1,0.7,0.4,0.7l12,3.2c0.3,0.1,0.6-0.1,0.7-0.4L24,8.1c0.1-0.3-0.1-0.7-0.4-0.7l-12-3.2
		C11.3,4,11,4.2,10.9,4.6L8.1,15.1z"/>
	<polygon class="st4" points="21.3,11.8 21.9,15.7 21.3,18 	"/>
	<polygon class="st4" points="14.3,5 14.9,5.1 15.2,7.5 	"/>
	<path class="st2" d="M23.6,7.3l-12-3.2C11.3,4,11,4.2,10.9,4.6L8.1,15.1c0,0,0,0,0,0.1l2.8-10.5c0.1-0.3,0.4-0.5,0.7-0.4l12,3.2
		C23.8,7.6,24,7.9,24,8.2l0-0.1C24.1,7.8,23.9,7.4,23.6,7.3z"/>
	<path class="st5" d="M17.5,13.8c0.1,0.3,0,0.7-0.3,0.8L4.5,19.2c-0.3,0.1-0.6-0.1-0.7-0.4L0,8.5c-0.1-0.3,0-0.7,0.3-0.8L13,3.2
		c0.3-0.1,0.6,0.1,0.7,0.4L17.5,13.8z"/>
	<path class="st2" d="M0.1,8.7C0,8.4,0.1,8,0.4,7.9l12.7-4.6c0.3-0.1,0.6,0.1,0.7,0.4l0-0.1c-0.1-0.3-0.4-0.5-0.7-0.4L0.4,7.8
		C0.1,7.9-0.1,8.2,0,8.5l3.7,10.3c0,0,0,0,0,0L0.1,8.7z"/>
	<path class="st6" d="M21.3,21.2c0,0.3-0.3,0.6-0.6,0.6H3.3c-0.3,0-0.6-0.3-0.6-0.6V8.1c0-0.3,0.3-0.6,0.6-0.6h17.3
		c0.3,0,0.6,0.3,0.6,0.6V21.2z"/>
	<path class="st7" d="M18,12.7h-5.2v-1.4H18c0.2,0,0.3,0.1,0.3,0.3v0.8C18.2,12.6,18.1,12.7,18,12.7z"/>
	<path class="st7" d="M18,17.9h-5.2v-1.4H18c0.2,0,0.3,0.1,0.3,0.3v0.8C18.2,17.7,18.1,17.9,18,17.9z"/>
	<path class="st7" d="M18.8,15.3h-6v-1.4h6c0.2,0,0.3,0.1,0.3,0.3V15C19.1,15.2,18.9,15.3,18.8,15.3z"/>
	<path class="st8" d="M20.7,21.7H3.3c-0.3,0-0.6-0.3-0.6-0.6v0.1c0,0.3,0.3,0.6,0.6,0.6h17.3c0.3,0,0.6-0.3,0.6-0.6v-0.1
		C21.3,21.4,21,21.7,20.7,21.7z"/>
	<path class="st2" d="M3.3,7.6h17.3c0.3,0,0.6,0.3,0.6,0.6V8.1c0-0.3-0.3-0.6-0.6-0.6H3.3C3,7.5,2.7,7.8,2.7,8.1v0.1
		C2.7,7.9,3,7.6,3.3,7.6z"/>
	<path class="st7" d="M8.1,14v1.2h1.8c-0.1,0.7-0.8,1.3-1.8,1.3c-1.1,0-1.9-0.9-1.9-2s0.9-2,1.9-2c0.5,0,0.9,0.2,1.3,0.5v0l0.9-0.9
		c-0.6-0.5-1.3-0.9-2.2-0.9c-1.8,0-3.3,1.5-3.3,3.3s1.5,3.3,3.3,3.3c1.9,0,3.1-1.3,3.1-3.2c0-0.2,0-0.4-0.1-0.6H8.1z"/>
	<g class="st9">
		<path class="st10" d="M8.2,15.3v0.1h1.7c0,0,0-0.1,0-0.1H8.2z"/>
		<path class="st10" d="M8.2,17.9c-1.8,0-3.2-1.4-3.3-3.2c0,0,0,0,0,0.1c0,1.8,1.5,3.3,3.3,3.3c1.9,0,3.1-1.3,3.1-3.2c0,0,0,0,0,0
			C11.3,16.6,10,17.9,8.2,17.9z"/>
		<path class="st10" d="M9.4,13.1c-0.3-0.3-0.8-0.5-1.3-0.5c-1.1,0-1.9,0.9-1.9,2c0,0,0,0,0,0.1c0-1,0.9-1.9,1.9-1.9
			c0.5,0,0.9,0.2,1.3,0.5v0l1-1c0,0,0,0-0.1-0.1L9.4,13.1L9.4,13.1z"/>
	</g>
	<path class="st8" d="M18.2,12.5v-0.1c0,0.2-0.1,0.3-0.3,0.3h-5.2v0.1H18C18.1,12.8,18.2,12.7,18.2,12.5z"/>
	<path class="st8" d="M18,17.9h-5.2V18H18c0.2,0,0.3-0.1,0.3-0.3v-0.1C18.2,17.7,18.1,17.9,18,17.9z"/>
	<path class="st8" d="M18.8,15.3h-6v0.1h6c0.2,0,0.3-0.1,0.3-0.3V15C19.1,15.2,18.9,15.3,18.8,15.3z"/>
	
		<radialGradient id="SVGID_1_" cx="5.4092" cy="18.4176" r="23.3406" gradientTransform="matrix(1 0 0 -1 0 22.1906)" gradientUnits="userSpaceOnUse">
		<stop  offset="0" style="stop-color:#FFFFFF;stop-opacity:0.1"/>
		<stop  offset="1" style="stop-color:#FFFFFF;stop-opacity:0"/>
	</radialGradient>
	<path class="st11" d="M23.6,7.3l-4.5-1.2V2.8c0-0.3-0.3-0.6-0.6-0.6h-13c-0.3,0-0.6,0.3-0.6,0.6v3.3L0.4,7.8C0.1,7.9-0.1,8.2,0,8.5
		l2.7,7.4v5.3c0,0.3,0.3,0.6,0.6,0.6h17.3c0.3,0,0.6-0.3,0.6-0.6v-3L24,8.1C24.1,7.8,23.9,7.4,23.6,7.3z"/>
</g>
</svg>
