<?xml version="1.0" encoding="utf-8"?>
<!-- Generator: Adobe Illustrator 25.1.0, SVG Export Plug-In . SVG Version: 6.00 Build 0)  -->
<svg version="1.1" id="Layer_1" xmlns="http://www.w3.org/2000/svg" xmlns:xlink="http://www.w3.org/1999/xlink" x="0px" y="0px"
	 viewBox="0 0 24 24" style="enable-background:new 0 0 24 24;" xml:space="preserve">
<style type="text/css">
	.st0{fill:#1DA1F2;}
</style>
<g>
	<g>
		<path class="st0" d="M23.95,4.57c-0.9,0.4-1.85,0.66-2.83,0.78c1.03-0.62,1.79-1.58,2.16-2.72c-0.95,0.56-2.01,0.96-3.13,1.18
			c-0.99-1.06-2.41-1.63-3.86-1.55c-1.45,0.08-2.8,0.8-3.67,1.96s-1.19,2.66-0.85,4.07C7.69,8.1,4.07,6.13,1.64,3.16
			C1.2,3.91,0.97,4.77,0.97,5.64c0,1.71,0.87,3.21,2.19,4.1C2.38,9.71,1.62,9.5,0.93,9.12v0.06c0,1.14,0.39,2.24,1.11,3.12
			s1.72,1.48,2.83,1.71c-0.72,0.19-1.48,0.22-2.21,0.09c0.32,0.98,0.93,1.83,1.76,2.45c0.83,0.61,1.82,0.95,2.85,0.97
			c-1.74,1.37-3.89,2.11-6.1,2.11c-0.39,0-0.78-0.02-1.17-0.07c2.26,1.44,4.88,2.21,7.56,2.21c9.05,0,14-7.5,14-13.99
			c0-0.21,0-0.42-0.01-0.63c0.97-0.7,1.8-1.56,2.46-2.55L23.95,4.57z"/>
	</g>
</g>
</svg>
