<?xml version="1.0" encoding="utf-8"?>
<!-- Generator: Adobe Illustrator 25.1.0, SVG Export Plug-In . SVG Version: 6.00 Build 0)  -->
<svg version="1.1" id="Layer_1" xmlns="http://www.w3.org/2000/svg" xmlns:xlink="http://www.w3.org/1999/xlink" x="0px" y="0px"
	 viewBox="0 0 24 24" style="enable-background:new 0 0 24 24;" xml:space="preserve">
<style type="text/css">
	.st0{fill:none;}
	.st1{fill:#378FBF;}
</style>
<g id="Слой_2">
	<g id="Режим_изоляции">
		<path class="st0" d="M12.4,2.83V8h4.62C16.16,5.14,14.4,3.07,12.4,2.83z"/>
		<path class="st0" d="M3.72,16c1.03,2.12,2.82,3.76,5.02,4.6c-1.27-1.27-2.16-2.86-2.6-4.6H3.72z"/>
		<path class="st0" d="M11.6,21.17V16H6.98C7.84,18.86,9.6,20.93,11.6,21.17z"/>
		<path class="st0" d="M12.4,16v5.17c2-0.24,3.76-2.31,4.62-5.17H12.4z"/>
		<path class="st0" d="M8.73,3.4C6.54,4.24,4.74,5.88,3.72,8h2.4C6.56,6.26,7.46,4.67,8.73,3.4z"/>
		<path class="st0" d="M15.27,20.6c2.2-0.84,3.99-2.49,5.02-4.6h-2.4C17.45,17.74,16.54,19.33,15.27,20.6z"/>
		<path class="st0" d="M22.4,8.8H1.6c-0.44,0-0.8,0.36-0.8,0.8v4.8c0,0.44,0.36,0.8,0.8,0.8h20.8c0.44,0,0.8-0.36,0.8-0.8V9.6
			C23.2,9.16,22.84,8.8,22.4,8.8z M8.33,14H7.57l-0.6-2.68l-0.49,2.2L6.38,14H5.6l-0.8-4h0.75l0.11,0.62l0.4,2.22l0.4-1.8L6.66,10
			H7.3l0.6,2.85L8.4,10h0.75L8.33,14z M13.36,14H12.6l-0.2-0.88L12,11.32l-0.4,1.79L11.4,14h-0.76l-0.8-4h0.75l0.5,2.84l0.51-2.44
			l0.08-0.4h0.64l0.08,0.36l0.52,2.48l0.5-2.84h0.75L13.36,14z M18.4,14h-0.76l-0.11-0.48l-0.49-2.2L16.43,14h-0.76l-0.8-4h0.73
			l0.5,2.84L16.71,10h0.64l0.22,1.02l0.4,1.83l0.4-2.22L18.45,10h0.75L18.4,14z"/>
		<path class="st0" d="M20.28,8c-1.03-2.12-2.82-3.76-5.02-4.6c1.27,1.27,2.16,2.86,2.6,4.6H20.28z"/>
		<path class="st0" d="M11.6,8V2.83C9.6,3.07,7.84,5.14,6.98,8H11.6z"/>
		<path class="st1" d="M22.4,8h-1.24C18.95,2.94,13.06,0.63,8,2.84C5.69,3.85,3.84,5.69,2.84,8H1.6C0.72,8,0,8.71,0,9.6v4.8
			C0,15.28,0.72,16,1.6,16h1.24c2.21,5.06,8.1,7.38,13.16,5.17c2.31-1.01,4.16-2.86,5.17-5.17h1.23c0.88,0,1.6-0.72,1.6-1.6V9.6
			C24,8.71,23.28,8,22.4,8z M20.28,8h-2.4c-0.43-1.74-1.33-3.33-2.6-4.6C17.47,4.24,19.26,5.89,20.28,8z M11.6,2.83V8H6.98
			C7.84,5.14,9.6,3.07,11.6,2.83z M12.4,2.83c2,0.24,3.76,2.31,4.62,5.17H12.4V2.83z M8.73,3.4C7.47,4.67,6.57,6.26,6.14,8h-2.4
			C4.76,5.89,6.54,4.24,8.73,3.4z M3.72,16h2.4c0.43,1.74,1.33,3.33,2.6,4.6C6.53,19.75,4.74,18.11,3.72,16z M12.4,21.17V16h4.62
			C16.16,18.86,14.4,20.93,12.4,21.17z M11.6,21.17c-2-0.24-3.76-2.31-4.62-5.17h4.62V21.17z M15.27,20.59
			c1.26-1.27,2.16-2.86,2.6-4.6h2.4C19.24,18.11,17.46,19.75,15.27,20.59L15.27,20.59z M23.2,14.4c0,0.44-0.36,0.8-0.8,0.8H1.6
			c-0.44,0-0.8-0.36-0.8-0.8V9.6c0-0.44,0.36-0.8,0.8-0.8h20.8c0.44,0,0.8,0.36,0.8,0.8V14.4z"/>
		<polygon class="st1" points="7.9,12.84 7.3,10 6.66,10 6.43,11.04 6.05,12.84 5.66,10.62 5.55,10 4.8,10 5.61,14 5.73,14 6.38,14 
			6.48,13.52 6.97,11.32 7.57,14 8.33,14 9.14,10 8.39,10 		"/>
		<polygon class="st1" points="12.92,12.84 12.4,10.36 12.32,10 11.68,10 11.6,10.39 11.08,12.84 10.58,10 9.83,10 10.64,14 
			11.4,14 11.6,13.11 12,11.32 12.4,13.11 12.6,14 13.36,14 14.17,10 13.42,10 		"/>
		<polygon class="st1" points="18.34,10.62 17.95,12.84 17.56,11.01 17.35,10 16.71,10 16.11,12.84 15.61,10 14.86,10 15.67,14 
			16.43,14 17.03,11.32 17.52,13.52 17.62,14 18.27,14 18.39,14 19.2,10 18.45,10 		"/>
		<path class="st1" d="M11.89,6.4C9.72,6.44,7.56,5.97,5.6,5.04C5.4,4.94,5.33,4.7,5.43,4.5c0.1-0.2,0.34-0.27,0.54-0.17
			c3.27,1.69,8.58,1.69,11.85,0c0.2-0.1,0.44-0.02,0.54,0.17c0.1,0.2,0.02,0.44-0.17,0.54l0,0C16.22,5.97,14.07,6.44,11.89,6.4z"/>
		<path class="st1" d="M18,19.6c-0.06,0-0.13-0.01-0.18-0.04c-3.27-1.69-8.58-1.69-11.85,0c-0.2,0.1-0.44,0.02-0.54-0.17
			c-0.1-0.2-0.02-0.44,0.17-0.54c3.47-1.8,9.12-1.8,12.58,0c0.2,0.1,0.27,0.34,0.17,0.54C18.29,19.51,18.15,19.6,18,19.6z"/>
	</g>
</g>
</svg>
